<svg xmlns="http://www.w3.org/2000/svg" viewBox="0 0 800 480" role="img" aria-labelledby="title desc">
  <title id="title">连连看游戏封面</title><desc id="desc">可爱的动物和水果图案组成的彩色配对棋盘</desc>
  <defs><linearGradient id="bg" x1="0" y1="0" x2="1" y2="1"><stop stop-color="#7054bd"/><stop offset="1" stop-color="#db91b5"/></linearGradient><filter id="shadow"><feDropShadow dx="0" dy="8" stdDeviation="8" flood-color="#38245f" flood-opacity=".24"/></filter></defs>
  <rect width="800" height="480" rx="42" fill="url(#bg)"/>
  <g fill="#fff" opacity=".72"><circle cx="87" cy="72" r="4"/><circle cx="703" cy="84" r="5"/><circle cx="649" cy="402" r="3"/><path d="m709 348 7 14 16 2-12 11 3 16-14-8-14 8 3-16-12-11 16-2z"/></g>
  <g filter="url(#shadow)">
    <rect x="165" y="47" width="470" height="386" rx="30" fill="#fff9ed"/>
    <rect x="184" y="66" width="432" height="348" rx="19" fill="#8069b0"/>
    <g font-family="system-ui,sans-serif" font-size="42" text-anchor="middle">
      <rect x="199" y="81" width="91" height="71" rx="13" fill="#fff0ca"/><text x="244" y="132">🐱</text>
      <rect x="302" y="81" width="91" height="71" rx="13" fill="#e5f7ed"/><text x="347" y="132">🍓</text>
      <rect x="405" y="81" width="91" height="71" rx="13" fill="#fbe1e2"/><text x="450" y="132">🐼</text>
      <rect x="508" y="81" width="91" height="71" rx="13" fill="#e4edff"/><text x="553" y="132">🍋</text>
      <rect x="199" y="162" width="91" height="71" rx="13" fill="#e4edff"/><text x="244" y="213">🍋</text>
      <rect x="302" y="162" width="91" height="71" rx="13" fill="#fff0ca"/><text x="347" y="213">🐰</text>
      <rect x="405" y="162" width="91" height="71" rx="13" fill="#e5f7ed"/><text x="450" y="213">🐱</text>
      <rect x="508" y="162" width="91" height="71" rx="13" fill="#fbe1e2"/><text x="553" y="213">🍇</text>
      <rect x="199" y="243" width="91" height="71" rx="13" fill="#fbe1e2"/><text x="244" y="294">🍉</text>
      <rect x="302" y="243" width="91" height="71" rx="13" fill="#e5f7ed"/><text x="347" y="294">🍇</text>
      <rect x="405" y="243" width="91" height="71" rx="13" fill="#fff0ca"/><text x="450" y="294">🐻</text>
      <rect x="508" y="243" width="91" height="71" rx="13" fill="#e4edff"/><text x="553" y="294">🐶</text>
      <rect x="199" y="324" width="91" height="71" rx="13" fill="#e5f7ed"/><text x="244" y="375">🍎</text>
      <rect x="302" y="324" width="91" height="71" rx="13" fill="#fbe1e2"/><text x="347" y="375">🐶</text>
      <rect x="405" y="324" width="91" height="71" rx="13" fill="#e4edff"/><text x="450" y="375">🐰</text>
      <rect x="508" y="324" width="91" height="71" rx="13" fill="#fff0ca"/><text x="553" y="375">🍎</text>
    </g>
    <path d="M247 116h198v116" fill="none" stroke="#73c69a" stroke-linecap="round" stroke-linejoin="round" stroke-width="9" opacity=".9"/>
    <circle cx="247" cy="116" r="7" fill="#73c69a"/><circle cx="445" cy="232" r="7" fill="#73c69a"/>
  </g>
</svg>
